<svg
    xmlns="http://www.w3.org/2000/svg"
    version="1.2"
    width="270"
    height="54"
>
    <g
        transform="translate(0,-6)"
        id="layer1">
        <rect
            width="266.465"
            height="50.53175"
            ry="4.6644692"
            x="1.7675018"
            y="7.7341251"
            id="rect3101"
            style="fill:#2C3237;fill-opacity:1" />
    </g>
    <g
        id="layer2">
        <text
            x="52.473"
            y="31.976562"
            id="text4303"
            xml:space="preserve"
            style="font-size:13px;font-style:normal;font-weight:normal;line-height:100%;letter-spacing:0px;word-spacing:0px;fill:#ffffff;fill-opacity:1;stroke:none;font-family:Roboto, Sans;user-select: none">OPEN IN GITHUB CODESPACES</text>
        <g transform="translate(-26, -22) scale(1.5)">
            <g
                transform="matrix(1.1349981,0,0,1.1349981,16.464659,15.380023)"
                id="g3949"
                style="fill:#ffffff">
                <path clip-rule="evenodd"
                    d="m18.5 8.5c-4.2358 0-7.6667 3.4308-7.6667 7.6667 0 3.3925 2.1946 6.2579 5.2421 7.2737.3833.0671.5271-.1629.5271-.3642 0-.182-.0096-.7858-.0096-1.4279-1.9262.3546-2.4246-.4696-2.5779-.9008-.0863-.2204-.46-.9008-.7858-1.0829-.2684-.1438-.6517-.4984-.0096-.5079.6037-.0096 1.035.5558 1.1787.7858.69 1.1596 1.7921.8337 2.2329.6325.0671-.4983.2684-.8338.4888-1.0254-1.7058-.1917-3.4883-.8529-3.4883-3.7854 0-.8338.297-1.5238.7858-2.0605-.0767-.1916-.345-.9775.0767-2.0316 0 0 .642-.2013 2.1083.7858.6133-.1725 1.265-.2587 1.9167-.2587.6516 0 1.3033.0862 1.9166.2587 1.4663-.9966 2.1084-.7858 2.1084-.7858.4216 1.0541.1533 1.84.0766 2.0316.4888.5367.7859 1.2171.7859 2.0605 0 2.942-1.7921 3.5937-3.498 3.7854.278.2396.5175.6996.5175 1.4183 0 1.0254-.0095 1.8496-.0095 2.1083 0 .2013.1437.4409.527.3642 3.0284-1.0158 5.223-3.8908 5.223-7.2737 0-4.2359-3.4309-7.6667-7.6667-7.6667z"
                    fill="#fff" fill-rule="evenodd"></path>
            </g>
        </g>
    </g>
</svg>