<?xml version="1.0" encoding="UTF-8"?>
<svg version="1.1" xmlns="http://www.w3.org/2000/svg" width="1500" height="500">
<path d="M50 0 L1450 0 Q1500 0 1500 50 L1500 450 Q1500 500 1450 500 L50 500 Q0 500 0 450 L0 50 Q0 0 50 0 Z" fill="#000000"/><path d="M0 0 C102.33056133 0 102.33056133 0 118.96875 15.87890625 C128.94114269 26.67528901 130.62588073 38.86776322 130.24609375 53.1953125 C129.68028516 61.94289297 126.86298945 69.39150112 121 76 C116.97575583 79.26271185 112.64732406 81.73942382 108 84 C108.75023437 84.25652344 109.50046875 84.51304687 110.2734375 84.77734375 C121.83677791 89.10267385 131.43504135 96.8700827 137.02734375 108.0546875 C141.29205483 119.41414835 140.40331412 134.85770079 136 146 C135.74476563 146.68835938 135.48953125 147.37671875 135.2265625 148.0859375 C129.75111616 160.79500102 118.06220824 168.68283514 105.6875 173.75 C70.62095665 185.54808935 40.54917825 179 0 179 C0 119.93 0 60.86 0 0 Z " fill="#FCFCFC" transform="translate(507,175)"/>
<path d="M0 0 C102.33056133 0 102.33056133 0 118.96875 15.87890625 C128.94114269 26.67528901 130.62588073 38.86776322 130.24609375 53.1953125 C129.68028516 61.94289297 126.86298945 69.39150112 121 76 C116.97575583 79.26271185 112.64732406 81.73942382 108 84 C108.75023437 84.25652344 109.50046875 84.51304687 110.2734375 84.77734375 C121.83677791 89.10267385 131.43504135 96.8700827 137.02734375 108.0546875 C141.29205483 119.41414835 140.40331412 134.85770079 136 146 C135.74476563 146.68835938 135.48953125 147.37671875 135.2265625 148.0859375 C129.75111616 160.79500102 118.06220824 168.68283514 105.6875 173.75 C70.62095665 185.54808935 40.54917825 179 0 179 C0 119.93 0 60.86 0 0 Z " fill="#FCFCFC" transform="translate(95,151)"/>
<path d="M0 0 C12.54 0 25.08 0 38 0 C43.83839832 17.43734965 49.64261477 34.88441713 55.3671875 52.359375 C55.60055376 53.07158707 55.83392002 53.78379913 56.07435799 54.51759338 C58.44634824 61.75684831 60.81675244 68.99661637 63.18241501 76.23794174 C64.08445424 78.99802825 64.98785429 81.75766816 65.89152908 84.51721954 C66.51725832 86.4296725 67.14114841 88.34272689 67.76498413 90.25579834 C69.72009117 96.22398726 71.73346119 102.14262197 74 108 C74.33128906 107.00871094 74.66257812 106.01742187 75.00390625 104.99609375 C79.48292928 91.82534495 84.48331065 78.8689943 89.50735474 65.89953613 C93.42153853 55.78877824 97.27685989 45.67841004 100.7746582 35.41430664 C102.85582017 29.32361664 105.14483678 23.32727994 107.51757812 17.34448242 C109.79543521 11.59537521 111.88302661 5.82167681 114 0 C122.58 0 131.16 0 140 0 C145.62499234 13.49998161 145.62499234 13.49998161 147.36499023 18.09936523 C147.76033463 19.14143631 148.15567902 20.18350739 148.56300354 21.25715637 C148.97404831 22.34663071 149.38509308 23.43610504 149.80859375 24.55859375 C150.2525499 25.73044724 150.69650604 26.90230072 151.15391541 28.10966492 C152.33985998 31.24116391 153.52407601 34.37330525 154.70745087 37.50577545 C155.93389753 40.75097775 157.16262053 43.99531793 158.39111328 47.23974609 C160.34807354 52.40887736 162.30377382 57.57848334 164.25830078 62.74853516 C166.68998753 69.18067399 169.12375306 75.61202326 171.55859375 82.04296875 C174.70772072 90.36122673 177.85486223 98.68023285 181 107 C182.84083372 104.23874942 183.66962005 102.27706071 184.64135742 99.15698242 C185.10984604 97.66590218 185.10984604 97.66590218 185.58779907 96.1446991 C185.92363007 95.05925308 186.25946106 93.97380707 186.60546875 92.85546875 C186.96192474 91.71777542 187.31838074 90.58008209 187.68563843 89.40791321 C188.65552416 86.31131073 189.62148281 83.21351264 190.58629227 80.11532593 C192.19938492 74.94280124 193.82593145 69.77447856 195.4511776 64.60576248 C195.86522186 63.28897148 196.27912199 61.97213514 196.69288063 60.65525436 C200.58974551 48.25475921 204.55423299 35.87688523 208.57974243 23.51748657 C209.23459824 21.5067988 209.88822516 19.49571038 210.5406189 17.48422241 C211.44173653 14.70713883 212.34700989 11.93145101 213.25390625 9.15625 C213.51972504 8.33610916 213.78554382 7.51596832 214.05941772 6.67097473 C215.8848073 1.1151927 215.8848073 1.1151927 217 0 C219.8116338 -0.08861992 222.59858255 -0.11522355 225.41015625 -0.09765625 C226.25219101 -0.0962413 227.09422577 -0.09482635 227.96177673 -0.09336853 C230.66205335 -0.08775263 233.36224828 -0.07519748 236.0625 -0.0625 C237.88867068 -0.05748705 239.71484266 -0.05292379 241.54101562 -0.04882812 C246.02737542 -0.03777804 250.51367384 -0.02050279 255 0 C252.61341777 9.37110696 249.58776277 18.50786269 246.51879883 27.6706543 C245.96638116 29.32734216 245.4142289 30.98411854 244.86231995 32.64097595 C243.37349423 37.10802358 241.88098924 41.5738339 240.38778901 46.03942084 C238.82412798 50.7178454 237.26389742 55.39741373 235.70329285 60.07685852 C232.75211033 68.92420629 229.79787213 77.77053052 226.84251755 86.61648542 C223.47616335 96.69314212 220.11324336 106.7709438 216.75060236 116.84884012 C209.8375384 137.56716409 202.92007046 158.28401531 196 179 C187.42 179 178.84 179 170 179 C163.98975277 164.07109855 158.14125929 149.0871197 152.375 134.0625 C151.49902768 131.78287598 150.62305106 129.5032536 149.74707031 127.22363281 C142.43173383 108.17412033 135.18800457 89.09789711 128 70 C125.38532447 72.61467553 124.4694877 75.57320638 123.19140625 78.96875 C122.91288315 79.69580643 122.63436005 80.42286285 122.34739685 81.17195129 C121.41393762 83.6126984 120.48825244 86.05632042 119.5625 88.5 C118.90474856 90.22437483 118.24653518 91.94857352 117.58789062 93.67260742 C115.77674528 98.4181759 113.97279335 103.1664482 112.17071533 107.91546631 C110.96360873 111.09588162 109.75518682 114.27579439 108.54638672 117.45556641 C107.92533302 119.08928696 107.92533302 119.08928696 107.29173279 120.75601196 C106.66586021 122.40239151 106.66586021 122.40239151 106.02734375 124.08203125 C103.55290129 130.5914951 101.07948576 137.10133889 98.61157227 143.61328125 C94.13084518 155.43149544 89.59901207 167.227263 85 179 C76.42 179 67.84 179 59 179 C47.63263485 145.96305317 36.53892394 112.83567985 25.48471284 79.6929667 C22.881909 71.88932747 20.27520298 64.08700586 17.66528285 56.28574383 C15.61939209 50.16962662 13.57692614 44.05237262 11.53709829 37.93423069 C10.32886644 34.31057942 9.11920121 30.68742237 7.90590286 27.06546402 C6.56853747 23.07279209 5.23827256 19.07779039 3.90869141 15.08251953 C3.5099028 13.8953685 3.1111142 12.70821747 2.70024109 11.48509216 C2.3418364 10.40430893 1.9834317 9.3235257 1.61416626 8.20999146 C1.30050425 7.27047197 0.98684223 6.33095249 0.66367531 5.36296272 C0 3 0 3 0 0 Z " fill="#00FD98" transform="translate(852,175)"/>
<path d="M0 0 C7.59 0 15.18 0 23 0 C24.258125 3.33867187 25.51625 6.67734375 26.8125 10.1171875 C34.90480751 31.58604934 42.99856564 53.05451174 51.14477539 74.50299072 C51.83972774 76.33381022 52.53373887 78.16498726 53.22680664 79.996521 C54.18376813 82.52471605 55.14412019 85.0515955 56.10546875 87.578125 C56.38682175 88.32347504 56.66817474 89.06882507 56.95805359 89.83676147 C58.05248112 93.17078862 58.05248112 93.17078862 60 96 C60.27038086 95.15127319 60.54076172 94.30254639 60.81933594 93.42810059 C63.40529476 85.31175561 65.99282254 77.19591273 68.58198547 69.08058929 C69.91208897 64.91141013 71.24164708 60.74205891 72.56982422 56.57226562 C78.59049599 37.67184666 84.67232616 18.80049247 91 0 C102.22 0 113.44 0 125 0 C123.77453822 5.51457801 122.62835593 10.48996173 120.86802673 15.7701416 C120.56025538 16.69941727 120.56025538 16.69941727 120.24626642 17.64746618 C119.56807599 19.69154551 118.88356466 21.73344661 118.19897461 23.77539062 C117.70732068 25.25278398 117.21605418 26.73030631 116.72514343 28.20794678 C115.3987961 32.19634515 114.06685169 36.18285307 112.73368907 40.16897774 C111.33793431 44.34488636 109.94683202 48.52234467 108.55506897 52.69958496 C106.2204194 59.7044146 103.88219568 66.70804313 101.54174805 73.7109375 C98.83334365 81.8149242 96.13028045 89.92067713 93.43011087 98.02741098 C90.83159615 105.82863939 88.22969132 113.62873276 85.62610054 121.42826843 C84.51781107 124.74848468 83.41065864 128.06907688 82.30439568 131.38996887 C81.00456213 135.29134637 79.70175451 139.19171799 78.39659309 143.09131622 C77.91703561 144.52573043 77.43850768 145.9604893 76.96105957 147.39560699 C76.31180491 149.34657073 75.65851695 151.29619089 75.00498962 153.24572754 C74.63979186 154.33926796 74.2745941 155.43280838 73.89832973 156.55948639 C73 159 73 159 72 160 C70.29227642 160.08713831 68.58101351 160.10700007 66.87109375 160.09765625 C65.31938477 160.09282227 65.31938477 160.09282227 63.73632812 160.08789062 C62.64771484 160.07951172 61.55910156 160.07113281 60.4375 160.0625 C58.7987793 160.05573242 58.7987793 160.05573242 57.12695312 160.04882812 C54.41791505 160.03699826 51.70898401 160.02051543 49 160 C45.83301371 151.70845539 42.66636782 143.41678081 39.5 135.125 C39.26427402 134.50770397 39.02854805 133.89040794 38.78567886 133.25440598 C29.84493795 109.84090845 20.9169494 86.42256952 12 63 C9.77074526 66.34388212 8.41199623 69.78051981 6.97265625 73.50390625 C6.67166519 74.27471024 6.37067413 75.04551422 6.06056213 75.8396759 C5.05744144 78.41250163 4.0599064 80.98745416 3.0625 83.5625 C2.36063784 85.36609625 1.65864966 87.16964346 0.95654297 88.97314453 C-3.15036216 99.54270971 -7.1992996 110.13369118 -11.21484375 120.73828125 C-11.64605026 121.87650833 -12.07725677 123.01473541 -12.52153015 124.18745422 C-14.64684983 129.80044338 -16.76667795 135.41542674 -18.87866211 141.03344727 C-19.65601676 143.09263729 -20.43343853 145.15180197 -21.2109375 147.2109375 C-21.74272865 148.63319389 -21.74272865 148.63319389 -22.28526306 150.08418274 C-22.61442215 150.95407333 -22.94358124 151.82396393 -23.28271484 152.72021484 C-23.70996353 153.85709244 -23.70996353 153.85709244 -24.14584351 155.01693726 C-25 157 -25 157 -27 160 C-29.33837891 160.34057617 -29.33837891 160.34057617 -32.2265625 160.29296875 C-33.2578125 160.28330078 -34.2890625 160.27363281 -35.3515625 160.26367188 C-36.43179688 160.23853516 -37.51203125 160.21339844 -38.625 160.1875 C-39.71296875 160.17396484 -40.8009375 160.16042969 -41.921875 160.14648438 C-44.61507409 160.11104754 -47.30729374 160.06164331 -50 160 C-52.37476643 153.01464226 -54.73983692 146.0260822 -57.09253788 139.03325939 C-58.18526573 135.78640497 -59.28131826 132.54075304 -60.38500977 129.29760742 C-61.65333335 125.57021976 -62.90712622 121.83802688 -64.16015625 118.10546875 C-64.55904556 116.93976852 -64.95793488 115.7740683 -65.36891174 114.57304382 C-65.72936081 113.49214981 -66.08980988 112.4112558 -66.46118164 111.29760742 C-66.94416466 109.86864388 -66.94416466 109.86864388 -67.43690491 108.41081238 C-68 106 -68 106 -67 103 C-64.41015625 101.4921875 -64.41015625 101.4921875 -61.0625 99.875 C-55.24463384 96.87326268 -50.75951854 93.48883766 -46.0234375 88.91796875 C-44 87 -44 87 -41 85 C-39.68 88.3 -38.36 91.6 -37 95 C-34.17670917 91.25122596 -34.17670917 91.25122596 -32.54711914 87.20996094 C-32.29570663 86.46417786 -32.04429413 85.71839478 -31.78526306 84.95001221 C-31.51710281 84.13635193 -31.24894257 83.32269165 -30.97265625 82.484375 C-28.12765782 74.11498213 -25.0931511 65.83381966 -21.93359375 57.578125 C-21.48770905 56.41261108 -21.04182434 55.24709717 -20.58242798 54.04626465 C-19.20293579 50.44668055 -17.82039021 46.84827984 -16.4375 43.25 C-14.60190217 38.46391039 -12.7677858 33.6772535 -10.93359375 28.890625 C-10.499935 27.75983521 -10.06627625 26.62904541 -9.61947632 25.46398926 C-6.37224338 16.99085433 -3.16991989 8.50234752 0 0 Z " fill="#00FC97" transform="translate(274,229)"/>
<path d="M0 0 C2.30591612 1.73635879 4.48201019 3.56235535 6.65234375 5.46484375 C7.33167969 6.01527344 8.01101563 6.56570313 8.7109375 7.1328125 C16.97152616 14.42725044 23.85919067 27.36070069 24.65234375 38.46484375 C25.58063514 55.10402903 22.55234086 69.77558033 11.40234375 82.77734375 C6.91632596 87.44280225 2.26452995 91.23681256 -3.34765625 94.46484375 C-4.22035156 94.97273438 -5.09304688 95.480625 -5.9921875 96.00390625 C-18.59293591 102.04281914 -36.08388424 101.73312991 -49.22265625 97.46484375 C-63.0075428 91.42446507 -73.72055547 81.14070567 -79.41796875 67.11328125 C-83.51283133 55.4480845 -85.00743373 38.6882666 -80.5859375 26.890625 C-73.34736702 12.71033393 -64.18420816 1.29029657 -49.08984375 -4.86328125 C-33.33827883 -9.95832047 -14.16573124 -9.26311543 0 0 Z " fill="#FCFCFC" transform="translate(745.34765625,256.53515625)"/>
<path d="M0 0 C12.08508015 8.22431903 21.05657098 19.49972143 24.62890625 33.7890625 C24.62890625 40.3890625 24.62890625 46.9890625 24.62890625 53.7890625 C-0.12109375 53.7890625 -24.87109375 53.7890625 -50.37109375 53.7890625 C-47.00793757 64.8004776 -47.00793757 64.8004776 -38.74609375 71.6640625 C-31.27452866 75.06521548 -24.06153501 74.73296637 -16.41796875 71.9140625 C-12.29717911 69.64920102 -9.45256061 65.95199621 -7.37109375 61.7890625 C2.52890625 61.7890625 12.42890625 61.7890625 22.62890625 61.7890625 C19.6409736 75.23475941 14.87819107 84.84121593 3.25390625 92.6015625 C-6.80797811 98.66909991 -16.42521993 99.99534273 -27.99609375 100.1015625 C-29.02605469 100.13056641 -30.05601563 100.15957031 -31.1171875 100.18945312 C-45.08716883 100.3036731 -57.30960299 94.13813278 -67.4921875 84.7578125 C-80.04463475 71.60514428 -81.87041753 56.80736548 -81.6484375 39.42578125 C-81.44440493 33.22461229 -80.38020944 28.24308468 -77.37109375 22.7890625 C-76.95859375 21.95890625 -76.54609375 21.12875 -76.12109375 20.2734375 C-69.63761367 8.26426418 -59.06723849 -0.99859821 -45.99609375 -5.0234375 C-44.45895686 -5.43651174 -42.91745082 -5.83384341 -41.37109375 -6.2109375 C-40.76910156 -6.39527344 -40.16710938 -6.57960937 -39.546875 -6.76953125 C-26.31270398 -9.45438103 -11.50764885 -6.80073571 0 0 Z " fill="#00FC97" transform="translate(1401.37109375,256.2109375)"/>
<path d="M0 0 C8.35279369 6.30399524 13.52338232 13.10347638 16.0625 23.3125 C16.58900346 29.14755227 16.53099132 34.93948791 16.453125 40.79296875 C16.44564893 42.4587587 16.43996247 44.12455755 16.43597412 45.7903595 C16.42082506 50.13881438 16.38163841 54.48672039 16.3371582 58.83496094 C16.29597154 63.28638284 16.27791355 67.73789491 16.2578125 72.18945312 C16.2151314 80.89741328 16.14487204 89.60482477 16.0625 98.3125 C6.8225 98.3125 -2.4175 98.3125 -11.9375 98.3125 C-12.5975 95.0125 -13.2575 91.7125 -13.9375 88.3125 C-16.76931799 88.3125 -17.43348078 89.60775994 -19.4375 91.5625 C-28.83637875 99.79277926 -38.70176158 100.32309686 -50.74804688 99.54003906 C-60.22880909 98.55475022 -67.67148494 93.69701548 -74.1875 87 C-80.24004358 77.70502236 -81.46604402 68.91056013 -79.5 57.8515625 C-76.99045276 49.91511935 -71.20618011 44.68616945 -64 40.9375 C-56.47778857 37.31306973 -49.52244693 36.00317753 -41.28125 36.1171875 C-40.49351196 36.1200174 -39.70577393 36.12284729 -38.89416504 36.12576294 C-36.40844736 36.13684831 -33.9231065 36.1619299 -31.4375 36.1875 C-29.73958858 36.1975449 -28.04167145 36.20666809 -26.34375 36.21484375 C-22.20819086 36.23674929 -18.07290904 36.27119674 -13.9375 36.3125 C-14.21278525 34.71701538 -14.50033349 33.12364372 -14.79296875 31.53125 C-15.03116333 30.1999707 -15.03116333 30.1999707 -15.27416992 28.84179688 C-16.49634528 24.18160672 -19.06283936 21.45812595 -23.1875 18.9375 C-30.10045533 17.36637379 -35.72699269 17.90280971 -41.9375 21.3125 C-44.73406139 23.66749907 -45.77521178 24.82563533 -46.9375 28.3125 C-57.1675 28.3125 -67.3975 28.3125 -77.9375 28.3125 C-74.83793735 19.78870272 -72.67138991 14.74177656 -66.9375 8.3125 C-66.41414063 7.68472656 -65.89078125 7.05695313 -65.3515625 6.41015625 C-50.17893628 -10.50177102 -18.64015888 -11.40002903 0 0 Z " fill="#00FD97" transform="translate(1180.9375,255.6875)"/>
<path d="M0 0 C9.24 0 18.48 0 28 0 C28 12.21 28 24.42 28 37 C37.24 37 46.48 37 56 37 C56 46.9 56 56.8 56 67 C46.76 67 37.52 67 28 67 C28.11994199 72.33869434 28.24261414 77.67717941 28.37231445 83.015625 C28.41559986 84.83134234 28.45727944 86.64709871 28.49731445 88.46289062 C28.55517202 91.07433833 28.61882172 93.68559077 28.68359375 96.296875 C28.70030624 97.10743347 28.71701874 97.91799194 28.73423767 98.75311279 C28.82771396 102.31724723 29.04624584 105.56687935 30 109 C33.13850064 109.92553743 35.93680778 110.11664647 39.203125 110.09765625 C40.52812012 110.09390991 40.52812012 110.09390991 41.87988281 110.09008789 C43.54809082 110.07643188 43.54809082 110.07643188 45.25 110.0625 C48.7975 110.041875 52.345 110.02125 56 110 C56 119.24 56 128.48 56 138 C47.75468609 140.74843797 42.55006724 141.51941397 34.1875 141.5 C33.08857422 141.52835938 31.98964844 141.55671875 30.85742188 141.5859375 C20.66707214 141.60995718 10.94790455 138.59094524 3 132 C-4.16005775 123.97579735 -5.44623403 115.69830476 -5.29296875 105.28125 C-5.28872391 104.18276733 -5.28447906 103.08428467 -5.28010559 101.95251465 C-5.26340661 98.4680864 -5.22576996 94.98425139 -5.1875 91.5 C-5.17244185 89.12761256 -5.15875543 86.75521599 -5.14648438 84.3828125 C-5.11353173 78.58831552 -5.06180965 72.79425811 -5 67 C-11.27 67 -17.54 67 -24 67 C-24 57.1 -24 47.2 -24 37 C-17.73 37 -11.46 37 -5 37 C-4.70996094 34.75316406 -4.70996094 34.75316406 -4.4140625 32.4609375 C-3.01133089 21.62968445 -1.5785818 10.80721385 0 0 Z " fill="#FCFCFC" transform="translate(800,215)"/>
<path d="M0 0 C10.89 0 21.78 0 33 0 C39.92929 13.85858 39.92929 13.85858 42.98046875 20.73046875 C43.32000076 21.49120193 43.65953278 22.25193512 44.00935364 23.03572083 C44.71556249 24.62043995 45.42037078 26.20578395 46.1237793 27.79174805 C47.19134477 30.19615933 48.26634391 32.59715495 49.34179688 34.99804688 C50.03430517 36.55448691 50.72637773 38.11112091 51.41796875 39.66796875 C51.73364304 40.37132858 52.04931732 41.07468842 52.3745575 41.79936218 C54.56973615 46.7726134 56.36018903 51.81814072 58 57 C58.66 57 59.32 57 60 57 C60.09587402 56.33137939 60.19174805 55.66275879 60.29052734 54.97387695 C61.18450751 51.22660496 62.72592506 47.89010092 64.3515625 44.41796875 C64.68868256 43.68612869 65.02580261 42.95428864 65.37313843 42.20027161 C66.45206942 39.86032119 67.53816355 37.52378761 68.625 35.1875 C70.0362208 32.14041376 71.44426481 29.09186852 72.8515625 26.04296875 C73.19753479 25.29530243 73.54350708 24.54763611 73.89996338 23.77731323 C76.63826282 17.84000215 79.27516782 11.86187885 81.84927368 5.85160828 C83.89606538 1.10393462 83.89606538 1.10393462 85 0 C87.44830426 -0.08843793 89.86820599 -0.11528752 92.31640625 -0.09765625 C93.41298805 -0.09553383 93.41298805 -0.09553383 94.53172302 -0.09336853 C96.87535632 -0.08775408 99.21889539 -0.07519922 101.5625 -0.0625 C103.14778508 -0.05748686 104.73307166 -0.05292363 106.31835938 -0.04882812 C110.2122761 -0.03777997 114.10612205 -0.02050572 118 0 C117.39098378 3.8440324 116.24296302 6.87548572 114.49072266 10.34326172 C113.96572174 11.38980927 113.44072083 12.43635681 112.89981079 13.51461792 C112.32701385 14.64159088 111.75421692 15.76856384 111.1640625 16.9296875 C110.56348583 18.12267837 109.96351182 19.31597281 109.36410522 20.509552 C107.77880568 23.6630349 106.18672613 26.81304194 104.59277344 29.9621582 C101.7754304 35.53074617 98.96942174 41.10505545 96.1640625 46.6796875 C95.70607364 47.58893258 95.70607364 47.58893258 95.23883247 48.51654625 C90.15919273 58.60657164 85.23106266 68.76278069 80.39868164 78.97338867 C76.72663649 86.71273874 72.85608204 94.35105037 69 102 C62.4 102 55.8 102 49 102 C47.86175781 99.72222656 46.72351562 97.44445312 45.55078125 95.09765625 C42.95559649 89.90560882 40.35648745 84.71556089 37.75140381 79.5284729 C22.69835813 49.55424727 22.69835813 49.55424727 15.86474609 35.08081055 C13.52825137 30.14572893 11.131837 25.24793703 8.66796875 20.375 C8.10899902 19.26930664 7.5500293 18.16361328 6.97412109 17.02441406 C5.8900699 14.88816743 4.80078835 12.75456458 3.70556641 10.62402344 C3.2213623 9.67043945 2.7371582 8.71685547 2.23828125 7.734375 C1.80555908 6.89100586 1.37283691 6.04763672 0.92700195 5.17871094 C0 3 0 3 0 0 Z " fill="#00FD97" transform="translate(1201,252)"/>
<path d="M0 0 C0.74822021 0.01393799 1.49644043 0.02787598 2.26733398 0.04223633 C29.10443037 0.90396508 53.12912749 10.95398121 73.3125 28.4375 C74.05757813 29.08074219 74.80265625 29.72398438 75.5703125 30.38671875 C95.02027733 48.53739443 106.42781237 75.62585641 107.55078125 102.015625 C107.58082786 103.57282331 107.60553292 105.1301335 107.625 106.6875 C107.66850586 107.87085938 107.66850586 107.87085938 107.71289062 109.078125 C107.75220593 112.65884229 107.67060901 114.83125247 105.82421875 117.95703125 C102.22715989 120.07722613 98.86371275 119.98161086 94.8125 119.875 C94.05324219 119.88208984 93.29398437 119.88917969 92.51171875 119.89648438 C89.39412716 119.86099515 86.72145187 119.59916379 83.8125 118.44921875 C81.40391998 115.21896169 81.80905645 111.6838177 81.8125 107.8125 C81.23460582 87.75213381 75.2623538 68.33789633 61.3125 53.4375 C60.54035156 52.58671875 59.76820313 51.7359375 58.97265625 50.859375 C42.64232449 33.62610231 22.18954203 27.49141929 -0.90576172 26.34667969 C-1.86756348 26.28512695 -2.82936523 26.22357422 -3.8203125 26.16015625 C-4.68543457 26.11640869 -5.55055664 26.07266113 -6.44189453 26.02758789 C-8.6875 25.4375 -8.6875 25.4375 -10.46459961 23.64038086 C-12.36311023 20.22048442 -12.16056209 16.74587631 -12.125 12.9375 C-12.14498047 12.17824219 -12.16496094 11.41898438 -12.18554688 10.63671875 C-12.18255571 7.22081171 -11.95083508 4.86375704 -10.140625 1.93359375 C-6.78202514 -0.11472432 -3.81566714 -0.11968518 0 0 Z " fill="#FCFCFC" transform="translate(287.6875,76.5625)"/>
<path d="M0 0 C6.02902959 -0.09247766 12.05553962 -0.17191769 18.0847168 -0.21972656 C20.13004962 -0.2396826 22.17532658 -0.26685738 24.22045898 -0.30175781 C51.09609547 -0.74848069 51.09609547 -0.74848069 60.625 6.375 C65.4804715 11.74157376 66.56440796 16.13512032 66.3515625 23.24609375 C65.66822977 28.59886684 63.54408847 32.3650828 59.875 36.25 C51.96377025 41.06553115 44.93123245 42.58490859 35.7421875 42.390625 C34.71312286 42.38496521 33.68405823 42.37930542 32.62380981 42.37347412 C29.37371026 42.35128703 26.12475989 42.30112415 22.875 42.25 C20.65626605 42.22991216 18.43751462 42.21166542 16.21875 42.1953125 C10.81171337 42.15490116 5.40712553 42.07657613 0 42 C0 28.14 0 14.28 0 0 Z " fill="#020202" transform="translate(544,279)"/>
<path d="M0 0 C6.02902959 -0.09247766 12.05553962 -0.17191769 18.0847168 -0.21972656 C20.13004962 -0.2396826 22.17532658 -0.26685738 24.22045898 -0.30175781 C51.09609547 -0.74848069 51.09609547 -0.74848069 60.625 6.375 C65.4804715 11.74157376 66.56440796 16.13512032 66.3515625 23.24609375 C65.66822977 28.59886684 63.54408847 32.3650828 59.875 36.25 C51.96377025 41.06553115 44.93123245 42.58490859 35.7421875 42.390625 C34.71312286 42.38496521 33.68405823 42.37930542 32.62380981 42.37347412 C29.37371026 42.35128703 26.12475989 42.30112415 22.875 42.25 C20.65626605 42.22991216 18.43751462 42.21166542 16.21875 42.1953125 C10.81171337 42.15490116 5.40712553 42.07657613 0 42 C0 28.14 0 14.28 0 0 Z " fill="#020202" transform="translate(132,255)"/>
<path d="M0 0 C12.82344854 3.10932328 22.56694752 8.48096899 31.83935547 17.86645508 C32.47615234 18.48133789 33.11294922 19.0962207 33.76904297 19.72973633 C44.58176778 30.95094185 48.9467621 46.19626969 49.27685547 61.42895508 C49.2993335 62.10812988 49.32181152 62.78730469 49.3449707 63.48706055 C49.32968109 66.61162928 48.98768129 68.62518358 47.34326172 71.30004883 C43.6963211 73.58152026 40.55885769 73.45242117 36.33935547 73.36645508 C35.20046875 73.3896582 35.20046875 73.3896582 34.03857422 73.41333008 C30.47084734 73.38833725 28.39457415 73.21953946 25.33935547 71.27661133 C23.31085293 68.01727262 23.37097739 65.62625497 23.33935547 61.80395508 C22.97845541 51.3682451 20.13995957 42.51950213 12.83935547 34.86645508 C3.49384648 26.49166087 -5.597347 24.82092213 -17.88330078 24.44067383 C-21.16064453 23.86645508 -21.16064453 23.86645508 -23.56298828 22.35473633 C-25.89441974 18.72363158 -25.74680077 15.59529052 -25.66064453 11.36645508 C-25.67611328 10.60719727 -25.69158203 9.84793945 -25.70751953 9.06567383 C-25.68243602 5.48500303 -25.51917453 3.42339488 -23.55126953 0.36645508 C-17.18456996 -3.62833681 -7.07780896 -1.5207885 0 0 Z " fill="#FCFCFC" transform="translate(301.16064453125,123.133544921875)"/>
<path d="M0 0 C5.69300797 -0.06911476 11.38454249 -0.12877484 17.07763672 -0.16479492 C19.01160635 -0.17982075 20.94554226 -0.20024726 22.87939453 -0.22631836 C25.66968136 -0.26297591 28.45951511 -0.27978868 31.25 -0.29296875 C32.10553467 -0.30845261 32.96106934 -0.32393646 33.8425293 -0.33988953 C40.74929481 -0.34179752 46.27716283 0.82173027 51.8125 5.25 C56.09849168 10.63810383 57.6291758 15.70053371 57.421875 22.5 C56.56286407 27.59043512 53.70347919 31.23778015 50.1875 34.875 C43.909961 38.10344863 37.36196201 38.28066575 30.46875 38.1953125 C29.15396667 38.19106766 29.15396667 38.19106766 27.81262207 38.18673706 C25.04160301 38.17563492 22.27091965 38.15054954 19.5 38.125 C17.6093797 38.11495729 15.71875429 38.10583371 13.828125 38.09765625 C9.21851989 38.07743868 4.60963109 38.03827184 0 38 C0 25.46 0 12.92 0 0 Z " fill="#000000" transform="translate(544,208)"/>
<path d="M0 0 C5.69300797 -0.06911476 11.38454249 -0.12877484 17.07763672 -0.16479492 C19.01160635 -0.17982075 20.94554226 -0.20024726 22.87939453 -0.22631836 C25.66968136 -0.26297591 28.45951511 -0.27978868 31.25 -0.29296875 C32.10553467 -0.30845261 32.96106934 -0.32393646 33.8425293 -0.33988953 C40.74929481 -0.34179752 46.27716283 0.82173027 51.8125 5.25 C56.09849168 10.63810383 57.6291758 15.70053371 57.421875 22.5 C56.56286407 27.59043512 53.70347919 31.23778015 50.1875 34.875 C43.909961 38.10344863 37.36196201 38.28066575 30.46875 38.1953125 C29.15396667 38.19106766 29.15396667 38.19106766 27.81262207 38.18673706 C25.04160301 38.17563492 22.27091965 38.15054954 19.5 38.125 C17.6093797 38.11495729 15.71875429 38.10583371 13.828125 38.09765625 C9.21851989 38.07743868 4.60963109 38.03827184 0 38 C0 25.46 0 12.92 0 0 Z " fill="#000000" transform="translate(132,184)"/>
<path d="M0 0 C5.20447925 3.20275646 8.8587988 7.33857162 11.6875 12.75 C13.28299643 21.96842381 12.84415187 30.68485379 8.25 39 C4.41981993 43.52905178 -0.04237822 46.58804202 -6 47.25 C-12.13141284 47.54909331 -16.711116 46.57749073 -21.75 43 C-26.88617834 37.86382166 -29.1018539 31.87418303 -29.21850586 24.74536133 C-29.20827393 24.02501709 -29.19804199 23.30467285 -29.1875 22.5625 C-29.17920166 21.81186279 -29.17090332 21.06122559 -29.16235352 20.2878418 C-28.95748571 13.5957364 -27.7721534 9.10457577 -23.03125 4.234375 C-16.23184178 -1.93119008 -8.75808077 -2.33548821 0 0 Z " fill="#020202" transform="translate(724.75,280)"/>
<path d="M0 0 C4.16622466 1.73531678 6.40255359 4.13273908 8.9375 7.8125 C10.6641335 12.9924005 10.6946449 17.03183946 8.875 22.1875 C6.05299253 26.42051121 2.92271008 29.35909664 -2 31 C-8.13253421 31.51104452 -12.15712481 30.94559121 -17 27 C-21.0222375 22.44852072 -22.24748946 17.9720283 -22 12 C-20.56882575 7.43813206 -17.9193429 4.11914747 -14.22265625 1.14453125 C-9.67240369 -1.19856893 -4.93030248 -0.88972894 0 0 Z " fill="#FBFBFB" transform="translate(296,168)"/>
<path d="M0 0 C1.67642578 0.01353516 1.67642578 0.01353516 3.38671875 0.02734375 C6.13303462 0.05081654 8.87890472 0.08365272 11.625 0.125 C11.8006116 9.18286146 11.8006116 9.18286146 8.625 13.125 C3.15749185 18.59250815 -3.57416884 20.27612091 -11.125 20.5 C-15.31146616 20.37704085 -18.11624751 19.9632683 -21.375 17.125 C-23.87531654 13.37452518 -23.91103554 11.56643734 -23.375 7.125 C-17.30715466 -0.90597178 -9.19410808 -0.1407814 0 0 Z " fill="#000905" transform="translate(1155.375,310.875)"/>
<path d="M0 0 C5.02596344 4.41154248 8.26276346 7.72787981 9.59765625 14.40234375 C-4.92234375 14.40234375 -19.44234375 14.40234375 -34.40234375 14.40234375 C-32.19617511 7.78383782 -29.53559429 3.07784571 -23.5859375 -0.7734375 C-16.49286201 -3.89794466 -6.56403542 -4.53192617 0 0 Z " fill="#000704" transform="translate(1386.40234375,277.59765625)"/>

<g transform="translate(830,425) scale(0.2)">
    <svg xmlns="http://www.w3.org/2000/svg" viewBox="0 0 40 40" fill="#00FD98"><path d="M12.0006 18.26L4.94715 22.2082L6.52248 14.2799L0.587891 8.7918L8.61493 7.84006L12.0006 0.5L15.3862 7.84006L23.4132 8.7918L17.4787 14.2799L19.054 22.2082L12.0006 18.26ZM12.0006 15.968L16.2473 18.3451L15.2988 13.5717L18.8719 10.2674L14.039 9.69434L12.0006 5.27502L9.96214 9.69434L5.12921 10.2674L8.70231 13.5717L7.75383 18.3451L12.0006 15.968Z"></path></svg>
</g>

<text x="1000" y="470" font-family="Soin Sans Pro, regular" font-size="40" fill="#00FD98">{{stars}}</text>

<g transform="translate(1030,425) scale(0.2)">
    <svg xmlns="http://www.w3.org/2000/svg" viewBox="0 0 40 40" fill="rgba(255,255,255,1)"><path d="M13 19.9C15.2822 19.4367 17 17.419 17 15V12C17 11.299 16.8564 10.6219 16.5846 10H7.41538C7.14358 10.6219 7 11.299 7 12V15C7 17.419 8.71776 19.4367 11 19.9V14H13V19.9ZM5.5358 17.6907C5.19061 16.8623 5 15.9534 5 15H2V13H5V12C5 11.3573 5.08661 10.7348 5.2488 10.1436L3.0359 8.86602L4.0359 7.13397L6.05636 8.30049C6.11995 8.19854 6.18609 8.09835 6.25469 8H17.7453C17.8139 8.09835 17.88 8.19854 17.9436 8.30049L19.9641 7.13397L20.9641 8.86602L18.7512 10.1436C18.9134 10.7348 19 11.3573 19 12V13H22V15H19C19 15.9534 18.8094 16.8623 18.4642 17.6907L20.9641 19.134L19.9641 20.866L17.4383 19.4077C16.1549 20.9893 14.1955 22 12 22C9.80453 22 7.84512 20.9893 6.56171 19.4077L4.0359 20.866L3.0359 19.134L5.5358 17.6907ZM8 6C8 3.79086 9.79086 2 12 2C14.2091 2 16 3.79086 16 6H8Z"></path></svg>
</g>

<text x="1200" y="470" font-family="Soin Sans Pro, regular" font-size="40" fill="#FFF">{{issues}}</text>

<g transform="translate(1230,425) scale(0.2)">
    <svg xmlns="http://www.w3.org/2000/svg" viewBox="0 0 40 40" fill="rgba(255,255,255,1)"><path d="M6 5C5.44772 5 5 5.44772 5 6C5 6.55228 5.44772 7 6 7C6.55228 7 7 6.55228 7 6C7 5.44772 6.55228 5 6 5ZM3 6C3 4.34315 4.34315 3 6 3C7.65685 3 9 4.34315 9 6C9 7.30622 8.16519 8.41746 7 8.82929V9C7 10.1046 7.89543 11 9 11H15C16.1046 11 17 10.1046 17 9V8.82929C15.8348 8.41746 15 7.30622 15 6C15 4.34315 16.3431 3 18 3C19.6569 3 21 4.34315 21 6C21 7.30622 20.1652 8.41746 19 8.82929V9C19 11.2091 17.2091 13 15 13H13V15.1707C14.1652 15.5825 15 16.6938 15 18C15 19.6569 13.6569 21 12 21C10.3431 21 9 19.6569 9 18C9 16.6938 9.83481 15.5825 11 15.1707V13H9C6.79086 13 5 11.2091 5 9V8.82929C3.83481 8.41746 3 7.30622 3 6ZM18 5C17.4477 5 17 5.44772 17 6C17 6.55228 17.4477 7 18 7C18.5523 7 19 6.55228 19 6C19 5.44772 18.5523 5 18 5ZM12 17C11.4477 17 11 17.4477 11 18C11 18.5523 11.4477 19 12 19C12.5523 19 13 18.5523 13 18C13 17.4477 12.5523 17 12 17Z"></path></svg>    
</g>

<text x="1400" y="470" font-family="Soin Sans Pro, regular" font-size="40" fill="#FFF">{{forks}}</text>

</svg>
